<svg xmlns="http://www.w3.org/2000/svg" viewBox="0 0 541.33 173.15"><defs><style>.cls-1{fill:#c230c2;}.cls-2{fill:#666;}.cls-3{fill:#f9f;}.cls-4{fill:#d92fd9;}.cls-5{fill:#64fcff;}.cls-6{fill:#95e700;}.cls-7{fill:#ff45cd;}.cls-8{fill:#fbff23;}.cls-9{fill:#ff0a3a;}.cls-10{fill:#ffddb3;}</style></defs><title>logo</title><g id="Layer_2" data-name="Layer 2"><g id="Layer_1-2" data-name="Layer 1"><path class="cls-1" d="M72,169.89c1.75-5.88,3-12.22,5.37-17.89,2.25-5.48,7.34-5.4,12.38-4.4,7.41,1.47,23,5.75,27.38-3.13a32.18,32.18,0,0,0,2.22-6.82,20.79,20.79,0,0,0,.52-4.44c0-1.38-.12-2.76-.14-4.15,0-.39.08-4.51-.17-2.93-.2,1.23,1.07-2,1.17-2.19.25-.52.48-1.07.69-1.61a32.76,32.76,0,0,0,1.06-3.22,18.32,18.32,0,0,0,.86-3.39c.2-2.36-1.15-4.33-.89-6.72l-1.69,5.53c2.86-5,9.73-5.41,11.63-11.17.32-.94,1.16-2.63,1-3.67-.39-2.2-4.74-5.16-6-7.16-4.08-6.35-5-14-5.24-21.32-.35-9-.55-18-.31-26.95,0,1.26-1.73,3.74-1.77,5.51-.28,10.78-.44,21.88.62,32.62a39.27,39.27,0,0,0,3.24,12.74,24.86,24.86,0,0,0,3.38,5.44c1.39,1.66,3.55,2.84,4.34,4.86l1.69-5.65c-2.05,4.57-9.09,5.15-11.21,9.92a12.88,12.88,0,0,0-1.26,7.54c.41,2,.68,2,.14,3.79-.18.62-.63,1.4-.88,2.06a45.18,45.18,0,0,0-1.54,5.09,22.84,22.84,0,0,0-.61,5.54c0,1.67.19,3.33.16,5a15,15,0,0,1-.11,2.22q1.14-2.58-.4-.33c-2.67,1.67-3.88,2.72-7.31,3a50.18,50.18,0,0,1-10.68-.23c-5.14-.63-12-3.84-17-1.29-3.19,1.63-4.14,5.28-5.15,8.45-2.17,6.88-4.12,13.83-6.17,20.75-1.2,4,.2.37.74-1.44Z" transform="translate(-0.11)"/><path class="cls-1" d="M24.8,120.41c2.88,2.1,3.23,4.21,3.55,7.6.27,3,1,5.62-.1,8.53a145.79,145.79,0,0,1-8.85,18.75c-.85,1.56-1,4.43-1.62,5.56a146.91,146.91,0,0,0,11.39-25.57c.83-2.63,1.8-5.46,1.61-8.26-.31-4.5-.3-9.48-4.23-12.35.36.26-2.45,5.23-1.75,5.74Z" transform="translate(-0.11)"/><path class="cls-1" d="M121.76,44.15C120.49,31.49,112,21.76,103,13.45,93.53,4.74,82.05.51,69.27.05A81.82,81.82,0,0,0,33.05,7C21.62,12.17,14,20.8,7.93,31.55A57.1,57.1,0,0,0,.14,58.65c-.26,12,1.09,24.8,8.56,34.62,15.05,19.81,48.82,27.3,67.63,8.66,6-5.94,9.7-16,7.21-24.31-4-13.52-18.92-19.89-32.06-18.07-1,.14-1.14,5.65-1.75,5.73,10.38-1.43,21.7,2,28.19,10.57,2.64,3.5,4.94,8.3,4.7,12.8-.29,5.25-6.58,9.82-10.75,12.4-18.76,11.59-44.25,4.88-58.82-10.49C5.14,82.22,2.43,71,2,59.78,1.7,53.5,1.52,46.89,4.2,41.07a72.18,72.18,0,0,1,10-15.82C27.64,9.36,52.49,4,72.4,6.14A50.49,50.49,0,0,1,103,20.86c8.29,8.1,15.83,17.08,17,29-.17-1.72,2-3.83,1.76-5.73Z" transform="translate(-0.11)"/><path class="cls-1" d="M101.85,40.43A35.22,35.22,0,0,0,88.2,59c-3,9.08-2.39,18.62-4.92,27.75-1,3.53.89-1.91,1.14-2.82,1.62-5.87,1.9-11.78,2.69-17.79,1.15-8.65,6-15.14,13-20,1.38-1,.6-4.94,1.75-5.74Z" transform="translate(-0.11)"/><path class="cls-1" d="M77.92,67.93A25.73,25.73,0,0,1,73.81,58c-.73-4.79,1.57-6.86,4.56-10.47,1.21-1.47.65-4.4,1.75-5.74C72.2,51.4,69,62.52,76.17,73.67c-.6-.93,2.53-4.52,1.75-5.74Z" transform="translate(-0.11)"/><path class="cls-2" d="M160,170.61c-.31-14-.48-28-.59-41.93s-.14-28-.21-41.94c0-7,0-14,0-21l.09-21,.26-21c.12-7,.24-14,.44-21h.25c.19,7,.31,14,.43,21l.26,21,.09,21c0,7,.05,14,0,21-.07,14,0,28-.2,41.94s-.29,27.95-.59,41.93Z" transform="translate(-0.11)"/><path class="cls-3" d="M199.58,115.4a18.76,18.76,0,0,1-5.92-.79,14,14,0,0,1-3.73-1.79,6.62,6.62,0,0,1-1.92-1.89,3.2,3.2,0,0,1-.55-1.18,5.66,5.66,0,0,1,.44-2.11,10,10,0,0,1,1.09-2.08,8.44,8.44,0,0,1,1.43-1.62,2.23,2.23,0,0,1,1.37-.66q.77,0,1.26,1l.55.55a6,6,0,0,0,1.24.9,9.44,9.44,0,0,0,2,.85,8.82,8.82,0,0,0,2.77.39,7.81,7.81,0,0,0,5.65-2.12,7.56,7.56,0,0,0,2.19-5.73,8.53,8.53,0,0,0-1.18-4.49,15.37,15.37,0,0,0-3.1-3.68,39.13,39.13,0,0,0-4.38-3.32q-2.47-1.62-5-3.37t-5.05-3.79a25.2,25.2,0,0,1-4.38-4.66,23,23,0,0,1-3.1-6,22.5,22.5,0,0,1-1.18-7.6,23.06,23.06,0,0,1,1.26-7.4,30.76,30.76,0,0,1,3.48-7.1A37.92,37.92,0,0,1,190,41.44a37.45,37.45,0,0,1,6.53-5.1,33.7,33.7,0,0,1,7.32-3.4,24.79,24.79,0,0,1,7.65-1.24,15.85,15.85,0,0,1,5.92,1.05,12.3,12.3,0,0,1,4.45,2.93,13,13,0,0,1,2.79,4.55,17,17,0,0,1,1,6,17.88,17.88,0,0,1-1.09,6.15,26.42,26.42,0,0,1-2.91,5.7,33.09,33.09,0,0,1-4.09,5,34.79,34.79,0,0,1-4.66,3.95,24.39,24.39,0,0,1-4.63,2.61,10.59,10.59,0,0,1-3.95.93,5.24,5.24,0,0,1-2.66-.68,7,7,0,0,1-2-1.7A8.4,8.4,0,0,1,198.43,66a5.47,5.47,0,0,1-.44-2,1.53,1.53,0,0,1,.19-.93.64.64,0,0,1,.55-.19,5.76,5.76,0,0,1,.9.16,4.89,4.89,0,0,0,1.27.14,10.53,10.53,0,0,0,5.1-1.59,25.78,25.78,0,0,0,9.4-9.49,11.63,11.63,0,0,0,1.68-5.76,6.7,6.7,0,0,0-1.4-4.49q-1.41-1.65-4.75-1.65a14.63,14.63,0,0,0-4.52.8,25.62,25.62,0,0,0-4.91,2.22,29.35,29.35,0,0,0-4.77,3.45,27.17,27.17,0,0,0-4.06,4.47,23.27,23.27,0,0,0-2.83,5.27,16.56,16.56,0,0,0-1.07,5.89A13.74,13.74,0,0,0,190,68a17.63,17.63,0,0,0,3.13,4.64,29,29,0,0,0,4.42,3.84q2.46,1.76,5,3.48t5.05,3.56A29,29,0,0,1,212,87.62a18.88,18.88,0,0,1,3.13,4.94,15.58,15.58,0,0,1,1.18,6.22,16.6,16.6,0,0,1-4.83,11.74,16.73,16.73,0,0,1-11.9,4.88Z" transform="translate(-0.11)"/><path class="cls-3" d="M258,107.07a4.09,4.09,0,0,0,2.94-1.21,11.4,11.4,0,0,0,2.14-3,21.66,21.66,0,0,0,1.48-3.92c.38-1.41.7-2.73,1-4a5.42,5.42,0,0,1,1.12-2.55,2.17,2.17,0,0,1,1.62-.79,2.63,2.63,0,0,1,1.34.41,5.05,5.05,0,0,1,1.26,1.07,5.56,5.56,0,0,1,.94,1.48,4.26,4.26,0,0,1,.35,1.65v.27A1.51,1.51,0,0,1,272,97a46.19,46.19,0,0,1-1.94,5.87,25.33,25.33,0,0,1-3.16,5.65,16.86,16.86,0,0,1-4.63,4.28,11.72,11.72,0,0,1-6.34,1.7,10.16,10.16,0,0,1-5.15-1.26,9.43,9.43,0,0,1-3.46-3.35,15.7,15.7,0,0,1-4.08,3.27,11.25,11.25,0,0,1-5.57,1.34,11.94,11.94,0,0,1-10-4.91,15.72,15.72,0,0,1-2.55-5.37,25,25,0,0,1-.85-6.67,33.54,33.54,0,0,1,2.24-12.61,29.91,29.91,0,0,1,6-9.52,26.22,26.22,0,0,1,8.53-6,24.91,24.91,0,0,1,10-2.08,5.45,5.45,0,0,1,3.73,1.26A4.39,4.39,0,0,1,256.18,72a4.7,4.7,0,0,1-.3,2,1.16,1.16,0,0,1-1.12.58,12.38,12.38,0,0,1-1.59-.11,11.89,11.89,0,0,0-1.71-.11A16.51,16.51,0,0,0,245,75.77a17.49,17.49,0,0,0-6,4.28,22.62,22.62,0,0,0-4.36,7.3,29.25,29.25,0,0,0-1.7,10.5,11.7,11.7,0,0,0,1.7,6.83,5.42,5.42,0,0,0,4.66,2.39,4.92,4.92,0,0,0,3.84-1.73,13.49,13.49,0,0,0,2.47-4.09V83.92a10.2,10.2,0,0,0-.08-1.37c-.06-.37-.11-.68-.17-.93s-.1-.49-.13-.69a2.93,2.93,0,0,1-.06-.58,1.58,1.58,0,0,1,.85-1.39,3.85,3.85,0,0,1,2.06-.53,6.47,6.47,0,0,1,4.44,1.46,4.49,4.49,0,0,1,1.65,3.48v18.54a7.65,7.65,0,0,0,.22,1.84,5.53,5.53,0,0,0,.66,1.64,3.48,3.48,0,0,0,1.17,1.21A3.2,3.2,0,0,0,258,107.07Z" transform="translate(-0.11)"/><path class="cls-3" d="M274.5,78.43V80.9a95,95,0,0,1,6.94,9.57,63.65,63.65,0,0,1,5.27,10.34,64.53,64.53,0,0,1,3.34,11.47,67.41,67.41,0,0,1,1.18,13,73.83,73.83,0,0,1-1.07,13,43.55,43.55,0,0,1-3,10.25,19.27,19.27,0,0,1-4.71,6.72,9.12,9.12,0,0,1-6.12,2.42,8.07,8.07,0,0,1-4.93-1.46,10.41,10.41,0,0,1-3.16-3.84,19.65,19.65,0,0,1-1.7-5.4,35.75,35.75,0,0,1-.52-6.14V80.35c-.11-.11-.23-.23-.36-.38s-.24-.29-.35-.44c-.88-.88-1.68-1.69-2.39-2.44a3.55,3.55,0,0,1-1.07-2.49,2.93,2.93,0,0,1,.6-1.68,2.72,2.72,0,0,1,2-1,4.46,4.46,0,0,0,.66-.06,7.88,7.88,0,0,1,.93,0l-.36-31.92a8,8,0,0,0-.19-1.92,7.21,7.21,0,0,0-.39-1.13c-.13-.27-1.48-1.92-1.61-2.08a.84.84,0,0,1-.19-.52.64.64,0,0,1,.33-.55,3.16,3.16,0,0,1,.88-.39,6.84,6.84,0,0,1,1.18-.24,8.69,8.69,0,0,1,1.23-.09,6.34,6.34,0,0,1,4.41,1.46c1.08,1,2.85,3.56,2.85,4.91l.36,31.81c1.32-.11,2.63-.21,3.95-.3l3.84-.28c1.24-.09,2.39-.15,3.43-.19s1.95-.05,2.71-.05a7,7,0,0,1,3.24.71A2.56,2.56,0,0,1,293,73.5a16.44,16.44,0,0,1-.14,1.75c-.09.77-.22,1.56-.38,2.36a9.9,9.9,0,0,1-.66,2.09q-.41.87-1,.87a.47.47,0,0,1-.41-.19,2,2,0,0,0-.44-.41,3.75,3.75,0,0,0-.88-.44,7.67,7.67,0,0,0-1.72-.33Zm8.23,46.85a63.94,63.94,0,0,0-.52-7.93,71.61,71.61,0,0,0-1.57-8.28,77.66,77.66,0,0,0-2.57-8.34,71.28,71.28,0,0,0-3.57-8v48.1c0,.87,0,1.82.11,2.85a17.42,17.42,0,0,0,.41,2.8,7.49,7.49,0,0,0,.82,2.11,1.57,1.57,0,0,0,1.35.85c.8,0,1.55-.59,2.25-1.76a17.24,17.24,0,0,0,1.75-5,62.47,62.47,0,0,0,1.13-7.62Q282.72,130.65,282.73,125.28Z" transform="translate(-0.11)"/><path class="cls-3" d="M321.94,78.65a20.74,20.74,0,0,1-1.06,6.42,22.7,22.7,0,0,1-3.19,6.23,24.25,24.25,0,0,1-5.21,5.26,22.16,22.16,0,0,1-7.15,3.54,12.22,12.22,0,0,0,1.45,2.71A9.57,9.57,0,0,0,309,105a10.34,10.34,0,0,0,2.93,1.48,12.59,12.59,0,0,0,3.87.55,12.11,12.11,0,0,0,5.65-1.24,12.34,12.34,0,0,0,4-3.26A17.45,17.45,0,0,0,328,98a29.06,29.06,0,0,0,1.48-5.11A3.39,3.39,0,0,1,331,90.42a3.22,3.22,0,0,1,2.42-.3,4.12,4.12,0,0,1,2.13,1.4,3.2,3.2,0,0,1,.74,2.55,36,36,0,0,1-.74,3.89A22.67,22.67,0,0,1,334,102.4a24.7,24.7,0,0,1-2.66,4.42,18.5,18.5,0,0,1-4,3.87,20.47,20.47,0,0,1-5.54,2.74,23.65,23.65,0,0,1-7.3,1,18.91,18.91,0,0,1-7.43-1.51,19.12,19.12,0,0,1-6.36-4.33,21.12,21.12,0,0,1-4.45-7,25,25,0,0,1-1.67-9.4,31.89,31.89,0,0,1,1.48-9.9,28.34,28.34,0,0,1,3.9-7.93,19.1,19.1,0,0,1,5.48-5.24,11.9,11.9,0,0,1,6.31-1.89,10.53,10.53,0,0,1,4.25.82,9,9,0,0,1,3.21,2.33,10.51,10.51,0,0,1,2,3.6A14.56,14.56,0,0,1,321.94,78.65Zm-18.1,13.28a7.93,7.93,0,0,0,.06,1,8.8,8.8,0,0,1,.05,1,15.4,15.4,0,0,0,3.79-2.53,15.91,15.91,0,0,0,2.91-3.51,17.26,17.26,0,0,0,1.86-4.3,17.76,17.76,0,0,0,.66-4.86,5.6,5.6,0,0,0-.63-2.9,1.93,1.93,0,0,0-1.73-1,3.62,3.62,0,0,0-2.44.93,8.15,8.15,0,0,0-1.86,2.44,16.38,16.38,0,0,0-1.32,3.4,38.73,38.73,0,0,0-.85,3.81,33.78,33.78,0,0,0-.44,3.65Q303.79,90.78,303.84,91.93Z" transform="translate(-0.11)"/><path class="cls-4" d="M348,52.49a7.45,7.45,0,0,0-.25-2.3,4.24,4.24,0,0,1-.25-1.32,1.61,1.61,0,0,1,.88-1.37,3.92,3.92,0,0,1,2.09-.55A6.78,6.78,0,0,1,355,48.41a4.44,4.44,0,0,1,1.73,3.53v36.7a29.19,29.19,0,0,0,4.69-1.32,27.91,27.91,0,0,0,5.1-2.5A30.56,30.56,0,0,0,371.45,81a25.37,25.37,0,0,0,4.22-5.26,28.86,28.86,0,0,0,3-6.83,30.29,30.29,0,0,0,1.13-8.59,21.71,21.71,0,0,0-1.08-6.58,18.72,18.72,0,0,0-3.31-6.19A17.54,17.54,0,0,0,369.58,43a18.35,18.35,0,0,0-8.47-1.81,26.82,26.82,0,0,0-11.19,2.14A21.89,21.89,0,0,0,342.13,49a23.4,23.4,0,0,0-4.55,8.2,30.89,30.89,0,0,0-1.48,9.54,26.62,26.62,0,0,0,.63,6.28,21.94,21.94,0,0,0,1.4,4.17,11.23,11.23,0,0,0,1.42,2.39c.44.51.7.8.77.87.62-.18,1.06-.11,1.31.22A2.07,2.07,0,0,1,342,82a8.22,8.22,0,0,1-.52,2.3,12.8,12.8,0,0,1-1.4,2.88,6.24,6.24,0,0,1-2,2,2,2,0,0,1-2.36-.24c-.44-.41-1.11-1.14-2-2.2A21.16,21.16,0,0,1,331,82.52a35,35,0,0,1-2.39-6.42,32.81,32.81,0,0,1-1-8.69A39.85,39.85,0,0,1,330,53.23a31.89,31.89,0,0,1,6.83-11,30.23,30.23,0,0,1,10.56-7.07A35.85,35.85,0,0,1,361,32.69a29.84,29.84,0,0,1,11.19,2,24.94,24.94,0,0,1,14.26,14.37,30.16,30.16,0,0,1,2,11,34.27,34.27,0,0,1-1.67,10.8,35.56,35.56,0,0,1-4.58,9.21,37.92,37.92,0,0,1-6.78,7.41,36.21,36.21,0,0,1-8.3,5.26,16.5,16.5,0,0,1,4.63,3.87,27,27,0,0,1,3.13,4.88,45.57,45.57,0,0,1,2.24,5.46c.64,1.9,1.29,3.78,2,5.62a51.94,51.94,0,0,0,2.25,5.35,18.56,18.56,0,0,0,3.18,4.61,1.36,1.36,0,0,0,.58.41l.71.27a2.13,2.13,0,0,1,.6.33.61.61,0,0,1,.25.52,2.9,2.9,0,0,1-.93,1.84,13.46,13.46,0,0,1-2.2,1.92,16.09,16.09,0,0,1-2.55,1.51,5.18,5.18,0,0,1-1.94.6,2,2,0,0,1-1.48-.66,26.34,26.34,0,0,1-4.28-6.5,56,56,0,0,1-2.58-6.69c-.69-2.21-1.34-4.36-1.92-6.44a28.46,28.46,0,0,0-2.28-5.76,16.11,16.11,0,0,0-3.64-4.61,15.11,15.11,0,0,0-6.09-3v15.57a2.16,2.16,0,0,1-.93,2,4.08,4.08,0,0,1-2.2.58,7.42,7.42,0,0,1-2-.27,8,8,0,0,1-1.78-.72,5,5,0,0,1-1.32-1,1.82,1.82,0,0,1-.52-1.24Z" transform="translate(-0.11)"/><path class="cls-4" d="M433.12,92.8a1.67,1.67,0,0,1,.74-1.09,3.9,3.9,0,0,1,1.46-.61,4.52,4.52,0,0,1,1.72,0,3.26,3.26,0,0,1,1.59.75,3.15,3.15,0,0,1,1,1.59,5.05,5.05,0,0,1-.08,2.6,15.33,15.33,0,0,1-1.62,4.31,14,14,0,0,1-2.82,3.53,12.64,12.64,0,0,1-4,2.42,14.45,14.45,0,0,1-5.15.88,23.49,23.49,0,0,1-2.88-.17,12.69,12.69,0,0,1-2.61-.6,17.45,17.45,0,0,1-5.37,5.84,14.2,14.2,0,0,1-8.12,2.22,15.23,15.23,0,0,1-7.35-1.67,14.88,14.88,0,0,1-5.1-4.56,20,20,0,0,1-3-6.66,32.44,32.44,0,0,1-1-8A39,39,0,0,1,392,82.47a40.66,40.66,0,0,1,3.38-8.34,22.49,22.49,0,0,1,3.81-5.24c1.26-1.21,2.2-1.81,2.82-1.81a2.74,2.74,0,0,1,2,1,5.78,5.78,0,0,1,1.31,2.25,5.65,5.65,0,0,1,.22,2.61,2.79,2.79,0,0,1-1.29,2c-.44.7-1,1.5-1.56,2.42a17.94,17.94,0,0,0-1.7,3.43,28,28,0,0,0-1.34,5,39.5,39.5,0,0,0-.55,7.13,26.84,26.84,0,0,0,.63,6.2,14.62,14.62,0,0,0,1.75,4.42,8,8,0,0,0,2.58,2.66,5.94,5.94,0,0,0,3.1.88,6.48,6.48,0,0,0,4-1.18,10.26,10.26,0,0,0,2.66-3.1,21.55,21.55,0,0,1-6-8.64,30.75,30.75,0,0,1-2.06-11.33,21,21,0,0,1,.58-5,14.11,14.11,0,0,1,1.7-4.19,8.83,8.83,0,0,1,2.82-2.88,7.3,7.3,0,0,1,3.95-1.07,5.81,5.81,0,0,1,3.73,1.42,12.38,12.38,0,0,1,3.07,4,23.54,23.54,0,0,1,2.06,6,36.18,36.18,0,0,1,.74,7.52,50.92,50.92,0,0,1-.38,6.19,38.92,38.92,0,0,1-1.21,5.93,4.23,4.23,0,0,0,1.12.25l1.13,0a7.28,7.28,0,0,0,5.59-2.41,8.62,8.62,0,0,0,1.59-2.58A14.07,14.07,0,0,0,433.12,92.8ZM411.68,82.38a21.69,21.69,0,0,0,1.18,7.19A20.87,20.87,0,0,0,416,95.49a42.3,42.3,0,0,0,.33-5.15c0-1.9,0-3.67-.08-5.3a30.9,30.9,0,0,0-.38-4.19,10.1,10.1,0,0,0-.82-2.77,1.58,1.58,0,0,0-1.4-1C412.32,77.06,411.68,78.84,411.68,82.38Z" transform="translate(-0.11)"/><path class="cls-4" d="M474.26,92.8a1.64,1.64,0,0,1,.74-1.09,3.85,3.85,0,0,1,1.45-.61,4.57,4.57,0,0,1,1.73,0,3.35,3.35,0,0,1,1.59.75,3.15,3.15,0,0,1,1,1.59,5.07,5.07,0,0,1-.09,2.6,15,15,0,0,1-1.61,4.31,13.79,13.79,0,0,1-2.83,3.53,12.59,12.59,0,0,1-4,2.42,14.54,14.54,0,0,1-5.16.88,23.74,23.74,0,0,1-2.88-.17,12.75,12.75,0,0,1-2.6-.6,17.37,17.37,0,0,1-5.38,5.84,14.17,14.17,0,0,1-8.11,2.22,15.17,15.17,0,0,1-7.35-1.67,15,15,0,0,1-5.11-4.56,20,20,0,0,1-3-6.66,32.44,32.44,0,0,1-1-8,39,39,0,0,1,1.45-11.1,40.68,40.68,0,0,1,3.37-8.34,22.49,22.49,0,0,1,3.81-5.24c1.27-1.21,2.21-1.81,2.83-1.81a2.7,2.7,0,0,1,2,1,5.9,5.9,0,0,1,1.54,4.86,2.79,2.79,0,0,1-1.29,2c-.44.7-1,1.5-1.57,2.42a17.94,17.94,0,0,0-1.7,3.43,28.84,28.84,0,0,0-1.34,5,39.5,39.5,0,0,0-.55,7.13,26.84,26.84,0,0,0,.63,6.2,14.62,14.62,0,0,0,1.76,4.42,8,8,0,0,0,2.58,2.66,5.91,5.91,0,0,0,3.09.88,6.46,6.46,0,0,0,4-1.18,10.13,10.13,0,0,0,2.66-3.1,21.63,21.63,0,0,1-6-8.64,30.54,30.54,0,0,1-2.06-11.33,21.57,21.57,0,0,1,.57-5,14.39,14.39,0,0,1,1.71-4.19A8.73,8.73,0,0,1,452,70.73a7.28,7.28,0,0,1,3.95-1.07,5.81,5.81,0,0,1,3.73,1.42,12.52,12.52,0,0,1,3.07,4,23.94,23.94,0,0,1,2.06,6,36.18,36.18,0,0,1,.74,7.52,49,49,0,0,1-.39,6.19,37.74,37.74,0,0,1-1.2,5.93,4.14,4.14,0,0,0,1.12.25l1.13,0a7.32,7.32,0,0,0,5.59-2.41,8.62,8.62,0,0,0,1.59-2.58A15.23,15.23,0,0,0,474.26,92.8ZM452.81,82.38A22,22,0,0,0,454,89.57a21.14,21.14,0,0,0,3.1,5.92,42.3,42.3,0,0,0,.33-5.15c0-1.9,0-3.67-.08-5.3a32.43,32.43,0,0,0-.39-4.19,9.77,9.77,0,0,0-.82-2.77,1.57,1.57,0,0,0-1.4-1C453.45,77.06,452.81,78.84,452.81,82.38Z" transform="translate(-0.11)"/><path class="cls-4" d="M541.34,97a56.72,56.72,0,0,1-2,5.87,25.33,25.33,0,0,1-3.16,5.65,16.92,16.92,0,0,1-4.61,4.28,11.55,11.55,0,0,1-6.3,1.7,8.86,8.86,0,0,1-4-.85,9.36,9.36,0,0,1-3-2.28,9.67,9.67,0,0,1-1.87-3.34,12.92,12.92,0,0,1-.63-4.06V81.12c0-.88,0-1.7-.05-2.47a10.58,10.58,0,0,0-.28-2,3.45,3.45,0,0,0-.63-1.39,1.35,1.35,0,0,0-1.12-.53,4.5,4.5,0,0,0-2.8,1.65,20.69,20.69,0,0,0-3.18,4.28,36.49,36.49,0,0,0-2.74,6,23.93,23.93,0,0,0-1.43,6.66v16.4q0,.83,0,1.68a4.17,4.17,0,0,1-.32,1.53,2.9,2.9,0,0,1-.94,1.15,3.06,3.06,0,0,1-1.84.47,9,9,0,0,1-1.78-.19,5.08,5.08,0,0,1-1.75-.71,4.09,4.09,0,0,1-1.32-1.49,5.32,5.32,0,0,1-.52-2.55V81.12c0-.88,0-1.7-.08-2.47a13.47,13.47,0,0,0-.3-2,3.74,3.74,0,0,0-.63-1.39A1.37,1.37,0,0,0,493,74.7a4.4,4.4,0,0,0-2.77,1.65A22.23,22.23,0,0,0,487,80.63a33.41,33.41,0,0,0-2.74,6,26.35,26.35,0,0,0-1.46,6.66v16.4c0,.55,0,1.11,0,1.68a4.18,4.18,0,0,1-.33,1.53,2.82,2.82,0,0,1-.94,1.15,3,3,0,0,1-1.83.47,8.85,8.85,0,0,1-1.78-.19,5.05,5.05,0,0,1-1.76-.71,4.09,4.09,0,0,1-1.32-1.49,5.44,5.44,0,0,1-.52-2.55V73.94a8,8,0,0,0-.24-2.31,3.87,3.87,0,0,1-.25-1.31A1.54,1.54,0,0,1,474.7,69a4.06,4.06,0,0,1,2.08-.52,6.37,6.37,0,0,1,4.42,1.46,4.53,4.53,0,0,1,1.61,3.48v4.72a37,37,0,0,1,2.39-4.28A20.22,20.22,0,0,1,488,70.4a12.34,12.34,0,0,1,3.15-2.28,8.05,8.05,0,0,1,3.6-.82,8.52,8.52,0,0,1,4.19.93,7.71,7.71,0,0,1,2.69,2.47,10.38,10.38,0,0,1,1.45,3.43,22.3,22.3,0,0,1,.55,3.76,33.06,33.06,0,0,1,2.3-4.17,19.76,19.76,0,0,1,2.75-3.35,12.52,12.52,0,0,1,3.15-2.25,8,8,0,0,1,3.59-.82,8.76,8.76,0,0,1,4.5,1A7.68,7.68,0,0,1,522.63,71,11.17,11.17,0,0,1,524,74.7a21.8,21.8,0,0,1,.38,4v23.26c0,.26,0,.67.05,1.23a7.65,7.65,0,0,0,.33,1.73,4.36,4.36,0,0,0,.85,1.54,2.11,2.11,0,0,0,1.68.66,4.07,4.07,0,0,0,2.93-1.21,11.18,11.18,0,0,0,2.14-3,23.3,23.3,0,0,0,1.51-3.92c.4-1.41.73-2.73,1-4a5.14,5.14,0,0,1,1.07-2.55,2.2,2.2,0,0,1,1.62-.79,2.67,2.67,0,0,1,1.35.41,5.44,5.44,0,0,1,1.26,1.07,5.78,5.78,0,0,1,.93,1.48,4.1,4.1,0,0,1,.36,1.65v.27A1.85,1.85,0,0,1,541.34,97Z" transform="translate(-0.11)"/><circle class="cls-5" cx="83.74" cy="56.36" r="4.14"/><circle class="cls-6" cx="77.36" cy="37.29" r="9.74"/><circle class="cls-7" cx="60.83" cy="80.7" r="10.61"/><circle class="cls-8" cx="105.66" cy="43.3" r="6.01"/><circle class="cls-9" cx="62.34" cy="51.49" r="6.79"/><circle class="cls-10" cx="48.08" cy="62.62" r="7.47"/></g></g></svg>