<svg xmlns="http://www.w3.org/2000/svg" viewBox="0 0 957.59 104.8" id='title'>    
    <path d="M64.13,90A24.87,24.87,0,0,1,53.7,99.32Q46.82,102.8,37,102.8q-14.77,0-24.33-7.2T2.25,75.49H24.84a11.9,11.9,0,0,0,3.54,7.82,10.89,10.89,0,0,0,7.76,2.85,9,9,0,0,0,6.45-2.23A7.84,7.84,0,0,0,45,78a7.7,7.7,0,0,0-2.17-5.59,17.37,17.37,0,0,0-5.4-3.66q-3.23-1.43-8.94-3.41a107.27,107.27,0,0,1-13.59-5.53,24.85,24.85,0,0,1-9.06-7.94Q2,46.56,2,38.12A23.09,23.09,0,0,1,6,24.59a25.31,25.31,0,0,1,11-8.75A40,40,0,0,1,33,12.8q14.65,0,23.28,7t9.74,19.12h-23A11.8,11.8,0,0,0,39.92,32,9.28,9.28,0,0,0,33,29.43a8.9,8.9,0,0,0-6,2,7.3,7.3,0,0,0-2.29,5.83,7.44,7.44,0,0,0,2,5.28,15.66,15.66,0,0,0,5.16,3.54q3.09,1.36,8.93,3.47a99.24,99.24,0,0,1,13.78,5.65,26.46,26.46,0,0,1,9.19,8.13q3.84,5.34,3.85,13.91A24.18,24.18,0,0,1,64.13,90Z" fill="none" stroke="#fff" stroke-miterlimit="10" stroke-width="4"/>
    <path d="M144.63,71.14h-48q.38,7.83,4,11.24a12.83,12.83,0,0,0,9.19,3.41,12.52,12.52,0,0,0,7.82-2.36,11,11,0,0,0,4.1-6.08h22.46a29.4,29.4,0,0,1-5.95,13.1,31.94,31.94,0,0,1-11.67,9.06,37,37,0,0,1-15.77,3.29,37.28,37.28,0,0,1-18.06-4.28A30.62,30.62,0,0,1,80.33,86.16,38.26,38.26,0,0,1,75.86,67.3a38.67,38.67,0,0,1,4.41-18.94A30.12,30.12,0,0,1,92.62,36.08a37.52,37.52,0,0,1,18.12-4.29A37.66,37.66,0,0,1,128.87,36,29.91,29.91,0,0,1,141,47.87a35.32,35.32,0,0,1,4.28,17.56A29.48,29.48,0,0,1,144.63,71.14ZM120.11,52a13.48,13.48,0,0,0-9.37-3.41A13.87,13.87,0,0,0,101.06,52Q97.2,55.5,96.71,62.21h27.07Q123.9,55.38,120.11,52Z" fill="none" stroke="#fff" stroke-miterlimit="10" stroke-width="4"/>
    <path d="M177.53,10.07v91.86H156.3V10.07Z" fill="none" stroke="#fff" stroke-miterlimit="10" stroke-width="4"/>
    <path d="M226.18,23.23c-3.47,0-6,.74-7.57,2.23s-2.44,3.89-2.6,7.2h12.53V50.54H216v51.39H194.78V50.54h-8.32V32.66h8.32v-.74q0-12.92,7.51-19.93t21.78-7q3,0,4.47.12V23.35Z" fill="none" stroke="#fff" stroke-miterlimit="10" stroke-width="4"/>
    <path d="M307.74,101.93l-19-33.15h-4.84v33.15H262.68V14.17h36.25q10.43,0,17.62,3.6a24.9,24.9,0,0,1,10.8,9.86A28.28,28.28,0,0,1,331,42a25.45,25.45,0,0,1-5.27,16.26q-5.28,6.71-15.33,9.19l20.85,34.51ZM283.91,54.26h13.16q6.33,0,9.31-2.79t3-8.26a10.94,10.94,0,0,0-3-8.19q-3-3-9.24-3H283.91Z" fill="none" stroke="#fff" stroke-miterlimit="10" stroke-width="4"/>
    <path d="M406.8,71.14h-48q.38,7.83,4,11.24a12.83,12.83,0,0,0,9.19,3.41,12.52,12.52,0,0,0,7.82-2.36,11,11,0,0,0,4.09-6.08H406.3a29.41,29.41,0,0,1-6,13.1,31.82,31.82,0,0,1-11.66,9.06,39.87,39.87,0,0,1-33.83-1A30.62,30.62,0,0,1,342.5,86.16,38.26,38.26,0,0,1,338,67.3a38.67,38.67,0,0,1,4.41-18.94,30.12,30.12,0,0,1,12.35-12.28A40.71,40.71,0,0,1,391,36a29.87,29.87,0,0,1,12.11,11.86,35.32,35.32,0,0,1,4.28,17.56A29.48,29.48,0,0,1,406.8,71.14ZM382.28,52a13.5,13.5,0,0,0-9.37-3.41A13.87,13.87,0,0,0,363.23,52q-3.86,3.47-4.35,10.18h27.06Q386.07,55.38,382.28,52Z" fill="none" stroke="#fff" stroke-miterlimit="10" stroke-width="4"/>
    <path d="M458.44,35.39a21.67,21.67,0,0,1,8.44,9.81V32.66H488v69.27h-21.1V89.39a21.67,21.67,0,0,1-8.44,9.81,25.09,25.09,0,0,1-13.66,3.6,28.09,28.09,0,0,1-15.33-4.28,29.29,29.29,0,0,1-10.67-12.36,42.7,42.7,0,0,1-3.91-18.86,42.69,42.69,0,0,1,3.91-18.94,29.3,29.3,0,0,1,10.67-12.28,28,28,0,0,1,15.33-4.29A25.09,25.09,0,0,1,458.44,35.39ZM440.62,54.88q-4.15,4.47-4.15,12.42t4.15,12.41a15.6,15.6,0,0,0,22-.12q4.27-4.61,4.28-12.29c0-5.22-1.43-9.33-4.28-12.36a15.67,15.67,0,0,0-22-.06Z" fill="none" stroke="#fff" stroke-miterlimit="10" stroke-width="4"/>
    <path d="M523.86,10.07v91.86H502.63V10.07Z" fill="none" stroke="#fff" stroke-miterlimit="10" stroke-width="4"/>
    <path d="M540,5.17a14.89,14.89,0,0,1,18.37,0,10.34,10.34,0,0,1,3.48,8,10.24,10.24,0,0,1-3.48,7.89,14.93,14.93,0,0,1-18.37,0,10.23,10.23,0,0,1-3.47-7.89A10.33,10.33,0,0,1,540,5.17Zm19.74,27.49v69.27H538.5V32.66Z" fill="none" stroke="#fff" stroke-miterlimit="10" stroke-width="4"/>
    <path d="M593.12,84.18h32v17.75H569.91V85.17L599.7,50.29H570.4V32.66h53.51V49.42Z" fill="none" stroke="#fff" stroke-miterlimit="10" stroke-width="4"/>
    <path d="M675.17,35.39a21.61,21.61,0,0,1,8.44,9.81V32.66h21.11v69.27H683.61V89.39a21.61,21.61,0,0,1-8.44,9.81,25.06,25.06,0,0,1-13.65,3.6,28.09,28.09,0,0,1-15.33-4.28,29.38,29.38,0,0,1-10.68-12.36A42.7,42.7,0,0,1,631.6,67.3a42.69,42.69,0,0,1,3.91-18.94,29.39,29.39,0,0,1,10.68-12.28,28,28,0,0,1,15.33-4.29A25.06,25.06,0,0,1,675.17,35.39ZM657.36,54.88q-4.15,4.47-4.16,12.42t4.16,12.41a15.58,15.58,0,0,0,22-.12q4.29-4.61,4.28-12.29c0-5.22-1.42-9.33-4.28-12.36a14.44,14.44,0,0,0-11-4.53A14.29,14.29,0,0,0,657.36,54.88Z" fill="none" stroke="#fff" stroke-miterlimit="10" stroke-width="4"/>
    <path d="M758.59,83.68v18.25H749q-12.16,0-18.93-6T723.34,76V50.54H714V32.66h9.31v-17h21.22v17h13.91V50.54H744.56V76.36q0,4.1,1.68,5.71t5.65,1.61Z" fill="none" stroke="#fff" stroke-miterlimit="10" stroke-width="4"/>
    <path d="M772,5.17a14.89,14.89,0,0,1,18.37,0,10.33,10.33,0,0,1,3.47,8,10.23,10.23,0,0,1-3.47,7.89,14.93,14.93,0,0,1-18.37,0,10.24,10.24,0,0,1-3.48-7.89A10.34,10.34,0,0,1,772,5.17Zm19.73,27.49v69.27H770.51V32.66Z" fill="none" stroke="#fff" stroke-miterlimit="10" stroke-width="4"/>
    <path d="M857.21,36.08A31.35,31.35,0,0,1,870,48.43a37.13,37.13,0,0,1,4.65,18.87A37.07,37.07,0,0,1,870,86.16a31.44,31.44,0,0,1-12.79,12.36,39,39,0,0,1-18.43,4.28,39.42,39.42,0,0,1-18.5-4.28,31.32,31.32,0,0,1-12.84-12.36,37,37,0,0,1-4.66-18.86,37,37,0,0,1,4.66-18.87,31.23,31.23,0,0,1,12.84-12.35,39.3,39.3,0,0,1,18.5-4.29A38.88,38.88,0,0,1,857.21,36.08ZM828.54,54.57Q824.39,59,824.38,67.3T828.54,80a13.62,13.62,0,0,0,10.24,4.34A13.45,13.45,0,0,0,849,80q4.1-4.35,4.1-12.66T849,54.57a13.34,13.34,0,0,0-10.18-4.41A13.51,13.51,0,0,0,828.54,54.57Z" fill="none" stroke="#fff" stroke-miterlimit="10" stroke-width="4"/>
    <path d="M948.58,39.86q7,7.95,7,21.85v40.22H934.36V64.19q0-6.94-3.66-10.86A12.7,12.7,0,0,0,921,49.42q-6.47,0-10.25,4.1t-3.78,11.67v36.74H885.7V32.66h21.23V45.32a22.83,22.83,0,0,1,8.87-9.8,26.06,26.06,0,0,1,13.85-3.6Q941.56,31.92,948.58,39.86Z" fill="none" stroke="#fff" stroke-miterlimit="10" stroke-width="4"/></svg>