<?xml version="1.0" encoding="utf-8"?>
<!-- Generator: Adobe Illustrator 24.2.0, SVG Export Plug-In . SVG Version: 6.00 Build 0)  -->
<svg version="1.1" id="Layer_1" xmlns="http://www.w3.org/2000/svg" xmlns:xlink="http://www.w3.org/1999/xlink" x="0px" y="0px"
	 viewBox="0 0 512 512" style="enable-background:new 0 0 512 512;" xml:space="preserve">
<style type="text/css">
	.st0{fill:#EC9F01;}
</style>
<path class="st0" d="M207,466c-4.2,0-8-2.7-9.4-6.7c-1.4-3.9-0.2-8.4,3-11c3.3-2.8,8.1-3.1,11.8-0.9c3.5,2.2,5.4,6.4,4.5,10.5
	C215.9,462.5,211.8,466,207,466z"/>
<path class="st0" d="M318.1,381.6c-24.8,0-68.2-10.2-123-65c-53.9-53.9-69.2-87.5-63-138.2c0.7-6.3,2.3-12.6,4.8-19.2
	c0,0,0-0.1,0-0.1c2.7-6.9,6.4-13.5,10.9-19.1c0.2-0.3,0.5-0.6,0.8-0.9l5.9-5.9c7.3-7.4,17-11.5,27.3-11.5h0.2c10.3,0,20,4,27.3,11.3
	l22,22c15,15,15,39.5,0,54.5l-1.5,1.5c-0.1,0.1-0.1,0.1-0.2,0.2l-8.5,8c6.6,12.1,14.2,25.7,30.2,41.7c16,16,29.7,23.6,41.8,30.2
	c0.2,0.1,0.4,0.2,0.6,0.3l9.7-9.7c15-15,39.5-15,54.5,0l21.1,21.1c7.3,7.3,11.3,17.1,11.3,27.4c0,10.4-4.1,20.1-11.5,27.3l-6,5.9
	c-0.3,0.3-0.5,0.5-0.8,0.7c-5.7,4.5-12.3,8.2-19.1,10.9c-7.3,2.8-13.6,4.5-19.4,5.3l-0.2,0C329.4,381,324.3,381.6,318.1,381.6z
	 M333.2,380.2c0,0-0.1,0-0.1,0C333.1,380.2,333.1,380.2,333.2,380.2z M155.6,166.3c-1.9,5-3.1,9.7-3.6,14.3c0,0,0,0.1,0,0.1
	c-4.7,38.9,2.7,67,57.3,121.7c63.4,63.4,107.8,60.5,119.9,58.1c0.5-0.1,1-0.2,1.6-0.3c4.1-0.5,8.9-1.8,14.7-4
	c4.8-1.9,9.5-4.5,13.6-7.6l5.5-5.4c3.5-3.5,5.5-8.1,5.5-13.1c0-5-1.9-9.6-5.4-13.1l-21.1-21.1c-7.2-7.2-18.9-7.2-26.1,0l-15,15
	c-3.1,3.1-8,3.8-11.9,1.7c-0.5-0.3-1-0.5-1.5-0.8c-0.9-0.5-1.8-0.9-2.7-1.4c-1-0.5-2-1.1-3.1-1.7c-12.6-6.9-28.3-15.6-46.4-33.6
	c-18.2-18.2-26.9-34-33.8-46.7c-0.5-1-1.1-1.9-1.6-2.9c-0.6-1-1-1.8-1.3-2.5c-0.2-0.3-0.3-0.7-0.5-1.1c-2.2-4-1.4-9,1.9-12.2
	l13.9-13.1l1.3-1.3c3.5-3.5,5.4-8.1,5.4-13.1s-1.9-9.6-5.4-13.1l-22-22c-3.5-3.5-8.2-5.4-13.1-5.4c-5,0-9.6,2-13.1,5.5l-5.4,5.5
	C160.1,156.7,157.5,161.4,155.6,166.3z"/>
<path class="st0" d="M256.9,471.9c-0.2,0-1.5,0-2.7,0c-0.9,0-1.8,0-2,0c-5.5,0-10-4.5-10-10s4.5-10,10-10c0.1,0,1.1,0,2.1,0
	c1.1,0,2.3,0,2.5,0c107.5-0.4,194.9-88.3,194.9-195.8C451.8,148,364,60.2,256,60.2S60.2,148,60.2,256c0,42,13.1,82.1,37.9,115.8
	l11.5,15.6c1.8,2.5,2.4,5.6,1.6,8.6l-9.7,35.7l37.9-12.6c2.6-0.9,5.5-0.6,8,0.7l19.1,10.4c4.9,2.6,6.7,8.7,4,13.6
	c-2.6,4.9-8.7,6.7-13.6,4l-15.3-8.3L90,456.7c-3.5,1.2-7.4,0.3-10.1-2.2c-2.7-2.5-3.8-6.4-2.8-9.9l13.4-49.1l-8.6-11.7
	C54.6,346.5,40.1,302.3,40.1,256C40.1,137,137,40.1,256,40.1S471.9,137,471.9,256C471.9,374.5,375.4,471.4,256.9,471.9
	C256.9,471.9,256.9,471.9,256.9,471.9z"/>
<path class="st0" d="M256,512c-41.3,0-82.2-10-118.6-29.1l-100,26.8c-3.4,0.9-7,0-9.6-2.5c-2.5-2.4-3.6-6-2.8-9.5l21.8-94.2
	C16.2,360.3,0,309.4,0,256c0-68.4,26.6-132.7,75-181S187.6,0,256,0s132.7,26.6,181,75s75,112.6,75,181s-26.6,132.7-75,181
	S324.4,512,256,512z M138.7,462.2c1.7,0,3.3,0.4,4.8,1.2c34.3,18.7,73.2,28.5,112.5,28.5c130.1,0,235.9-105.8,235.9-235.9
	S386.1,20.1,256,20.1S20.1,125.9,20.1,256c0,50.6,15.8,98.9,45.7,139.6c1.7,2.4,2.4,5.4,1.7,8.2l-19,82.3l87.6-23.5
	C136.9,462.3,137.8,462.2,138.7,462.2z"/>
</svg>
